P3
50 50
255
128 0 255
128 0 255
128 0 255
128 0 255
128 0 255
128 0 255
128 0 255
128 0 255
128 0 255
128 0 255
128 0 255
128 0 255
128 0 255
128 0 255
128 0 255
128 0 255
128 0 255
128 0 255
128 0 255
128 0 255
128 0 255
128 0 255
128 0 255
128 0 255
128 0 255
128 0 255
128 0 255
128 0 255
128 0 255
128 0 255
128 0 255
128 0 255
128 0 255
128 0 255
128 0 255
128 0 255
128 0 255
128 0 255
128 0 255
128 0 255
128 0 255
128 0 255
128 0 255
128 0 255
128 0 255
128 0 255
128 0 255
128 0 255
128 0 255
128 0 255
128 0 255
128 0 255
128 0 255
128 0 255
128 0 255
128 0 255
128 0 255
128 0 255
128 0 255
128 0 255
128 0 255
128 0 255
128 0 255
128 0 255
128 0 255
128 0 255
128 0 255
128 0 255
128 0 255
128 0 255
128 0 255
128 0 255
128 0 255
128 0 255
128 0 255
128 0 255
128 0 255
128 0 255
128 0 255
128 0 255
128 0 255
128 0 255
128 0 255
128 0 255
128 0 255
128 0 255
128 0 255
128 0 255
128 0 255
128 0 255
128 0 255
128 0 255
128 0 255
128 0 255
128 0 255
128 0 255
128 0 255
128 0 255
128 0 255
128 0 255
128 0 255
128 0 255
128 0 255
128 0 255
128 0 255
128 0 255
128 0 255
128 0 255
128 0 255
128 0 255
128 0 255
128 0 255
128 0 255
128 0 255
128 0 255
128 0 255
128 0 255
128 0 255
128 0 255
128 0 255
128 0 255
128 0 255
128 0 255
128 0 255
128 0 255
128 0 255
128 0 255
128 0 255
128 0 255
128 0 255
128 0 255
128 0 255
128 0 255
128 0 255
128 0 255
128 0 255
128 0 255
128 0 255
128 0 255
128 0 255
128 0 255
128 0 255
128 0 255
128 0 255
128 0 255
128 0 255
128 0 255
128 0 255
128 0 255
128 0 255
128 0 255
128 0 255
128 0 255
128 0 255
128 0 255
128 0 255
128 0 255
128 0 255
128 0 255
128 0 255
128 0 255
128 0 255
128 0 255
128 0 255
128 0 255
128 0 255
128 0 255
128 0 255
128 0 255
128 0 255
128 0 255
128 0 255
128 0 255
128 0 255
128 0 255
128 0 255
128 0 255
128 0 255
128 0 255
128 0 255
128 0 255
128 0 255
128 0 255
128 0 255
128 0 255
128 0 255
128 0 255
128 0 255
128 0 255
128 0 255
128 0 255
128 0 255
128 0 255
128 0 255
128 0 255
128 0 255
128 0 255
128 0 255
128 0 255
128 0 255
128 0 255
128 0 255
128 0 255
128 0 255
128 0 255
128 0 255
128 0 255
128 0 255
128 0 255
128 0 255
128 0 255
128 0 255
128 0 255
128 0 255
128 0 255
128 0 255
128 0 255
128 0 255
128 0 255
128 0 255
128 0 255
128 0 255
128 0 255
128 0 255
128 0 255
128 0 255
128 0 255
128 0 255
128 0 255
128 0 255
128 0 255
128 0 255
128 0 255
128 0 255
128 0 255
128 0 255
128 0 255
128 0 255
128 0 255
128 0 255
128 0 255
128 0 255
128 0 255
128 0 255
128 0 255
128 0 255
128 0 255
128 0 255
128 0 255
128 0 255
128 0 255
128 0 255
128 0 255
128 0 255
128 0 255
128 0 255
128 0 255
128 0 255
128 0 255
128 0 255
128 0 255
128 0 255
128 0 255
128 0 255
128 0 255
128 0 255
128 0 255
128 0 255
128 0 255
128 0 255
128 0 255
128 0 255
128 0 255
128 0 255
128 0 255
128 0 255
128 0 255
128 0 255
128 0 255
128 0 255
128 0 255
128 0 255
128 0 255
128 0 255
128 0 255
128 0 255
128 0 255
128 0 255
128 0 255
128 0 255
128 0 255
128 0 255
128 0 255
128 0 255
128 0 255
128 0 255
128 0 255
128 0 255
128 0 255
128 0 255
128 0 255
128 0 255
128 0 255
128 0 255
128 0 255
128 0 255
128 0 255
128 0 255
128 0 255
128 0 255
128 0 255
128 0 255
128 0 255
128 0 255
128 0 255
128 0 255
128 0 255
128 0 255
128 0 255
128 0 255
128 0 255
128 0 255
128 0 255
128 0 255
128 0 255
128 0 255
128 0 255
128 0 255
128 0 255
128 0 255
128 0 255
128 0 255
128 0 255
128 0 255
128 0 255
128 0 255
128 0 255
128 0 255
128 0 255
128 0 255
128 0 255
128 0 255
128 0 255
128 0 255
128 0 255
128 0 255
128 0 255
128 0 255
128 0 255
128 0 255
128 0 255
128 0 255
128 0 255
128 0 255
128 0 255
128 0 255
128 0 255
128 0 255
128 0 255
128 0 255
128 0 255
128 0 255
128 0 255
128 0 255
128 0 255
128 0 255
128 0 255
128 0 255
128 0 255
128 0 255
128 0 255
128 0 255
128 0 255
128 0 255
128 0 255
128 0 255
128 0 255
128 0 255
128 0 255
128 0 255
128 0 255
128 0 255
128 0 255
128 0 255
128 0 255
128 0 255
128 0 255
128 0 255
128 0 255
128 0 255
128 0 255
128 0 255
128 0 255
128 0 255
128 0 255
128 0 255
128 0 255
128 0 255
128 0 255
128 0 255
128 0 255
128 0 255
128 0 255
128 0 255
128 0 255
128 0 255
128 0 255
128 0 255
128 0 255
128 0 255
128 0 255
128 0 255
128 0 255
128 0 255
128 0 255
128 0 255
128 0 255
128 0 255
128 0 255
128 0 255
128 0 255
128 0 255
128 0 255
128 0 255
128 0 255
128 0 255
128 0 255
128 0 255
128 0 255
128 0 255
128 0 255
128 0 255
128 0 255
128 0 255
128 0 255
128 0 255
128 0 255
128 0 255
128 0 255
128 0 255
128 0 255
128 0 255
128 0 255
128 0 255
128 0 255
128 0 255
128 0 255
128 0 255
128 0 255
128 0 255
128 0 255
128 0 255
128 0 255
128 0 255
128 0 255
128 0 255
128 0 255
128 0 255
252 252 252
254 254 254
238 238 238
219 219 219
128 0 255
128 0 255
128 0 255
128 0 255
128 0 255
128 0 255
128 0 255
128 0 255
128 0 255
128 0 255
128 0 255
128 0 255
128 0 255
128 0 255
128 0 255
128 0 255
128 0 255
128 0 255
128 0 255
128 0 255
128 0 255
128 0 255
128 0 255
128 0 255
128 0 255
128 0 255
128 0 255
128 0 255
128 0 255
128 0 255
128 0 255
128 0 255
128 0 255
128 0 255
128 0 255
128 0 255
128 0 255
128 0 255
128 0 255
128 0 255
128 0 255
128 0 255
128 0 255
128 0 255
177 177 177
124 124 124
131 131 131
110 110 110
131 131 131
144 144 144
181 181 181
214 214 214
236 236 236
237 237 237
215 215 215
128 0 255
128 0 255
128 0 255
128 0 255
128 0 255
128 0 255
128 0 255
128 0 255
128 0 255
128 0 255
128 0 255
128 0 255
128 0 255
128 0 255
128 0 255
128 0 255
128 0 255
128 0 255
128 0 255
128 0 255
128 0 255
128 0 255
128 0 255
128 0 255
128 0 255
128 0 255
128 0 255
128 0 255
128 0 255
128 0 255
128 0 255
128 0 255
128 0 255
128 0 255
128 0 255
128 0 255
128 0 255
128 0 255
131 131 131
90 90 90
56 56 56
30 30 30
36 36 36
60 60 60
81 81 81
121 121 121
152 152 152
191 191 191
190 190 190
234 234 234
233 233 233
128 0 255
128 0 255
128 0 255
128 0 255
128 0 255
128 0 255
128 0 255
128 0 255
128 0 255
128 0 255
128 0 255
128 0 255
128 0 255
128 0 255
128 0 255
128 0 255
128 0 255
250 250 250
98 98 98
167 167 167
25 25 25
211 211 211
0 0 0
168 168 168
128 0 255
128 0 255
128 0 255
128 0 255
128 0 255
128 0 255
128 0 255
128 0 255
128 0 255
128 0 255
128 0 255
139 139 139
104 104 104
68 68 68
9 9 9
0 0 0
0 0 0
0 0 0
0 0 0
0 0 0
53 53 53
99 99 99
131 131 131
160 160 160
157 157 157
199 199 199
203 203 203
246 246 246
15 15 15
128 0 255
128 0 255
128 0 255
117 117 117
93 93 93
111 111 111
176 176 176
128 0 255
128 0 255
128 0 255
128 0 255
221 221 221
207 207 207
244 244 244
137 137 137
126 126 126
0 0 0
230 230 230
158 158 158
151 151 151
207 207 207
0 0 0
125 125 125
196 196 196
179 179 179
73 73 73
128 0 255
128 0 255
128 0 255
128 0 255
128 0 255
104 104 104
75 75 75
0 0 0
0 0 0
0 0 0
0 0 0
0 0 0
0 0 0
0 0 0
0 0 0
0 0 0
0 0 0
85 85 85
105 105 105
160 160 160
112 112 112
185 185 185
107 107 107
233 233 233
128 0 255
128 0 255
122 122 122
69 69 69
105 105 105
187 187 187
26 26 26
96 96 96
0 0 0
173 173 173
137 137 137
126 126 126
214 214 214
252 252 252
101 101 101
0 0 0
127 127 127
185 185 185
119 119 119
167 167 167
253 253 253
206 206 206
191 191 191
201 201 201
151 151 151
12 12 12
0 0 0
128 0 255
128 0 255
128 0 255
128 0 255
0 0 0
0 0 0
6 6 6
0 0 0
0 0 0
0 0 0
0 0 0
0 0 0
0 0 0
3 3 3
82 82 82
133 133 133
128 128 128
82 82 82
125 125 125
125 125 125
86 86 86
105 105 105
0 0 0
0 0 0
128 0 255
127 127 127
63 63 63
102 102 102
117 117 117
133 133 133
146 146 146
100 100 100
229 229 229
214 214 214
204 204 204
149 149 149
222 222 222
168 168 168
73 73 73
128 128 128
184 184 184
117 117 117
224 224 224
139 139 139
29 29 29
19 19 19
37 37 37
47 47 47
0 0 0
0 0 0
128 0 255
128 0 255
128 0 255
128 0 255
128 0 255
128 0 255
128 0 255
0 0 0
0 0 0
0 0 0
0 0 0
138 138 138
48 48 48
0 0 0
0 0 0
0 0 0
0 0 0
4 4 4
105 105 105
98 98 98
96 96 96
71 71 71
10 10 10
0 0 0
172 172 172
79 79 79
122 122 122
0 0 0
121 121 121
13 13 13
72 72 72
200 200 200
85 85 85
126 126 126
136 136 136
36 36 36
186 186 186
128 128 128
14 14 14
91 91 91
209 209 209
197 197 197
26 26 26
11 11 11
0 0 0
0 0 0
3 3 3
0 0 0
0 0 0
0 0 0
128 0 255
128 0 255
128 0 255
128 0 255
128 0 255
128 0 255
128 0 255
128 0 255
128 0 255
84 84 84
50 50 50
0 0 0
0 0 0
0 0 0
14 14 14
0 0 0
11 11 11
0 0 0
56 56 56
115 115 115
92 92 92
60 60 60
23 23 23
0 0 0
0 0 0
133 133 133
89 89 89
7 7 7
85 85 85
109 109 109
81 81 81
226 226 226
152 152 152
153 153 153
74 74 74
86 86 86
52 52 52
11 11 11
186 186 186
107 107 107
152 152 152
29 29 29
0 0 0
0 0 0
0 0 0
0 0 0
0 0 0
0 0 0
0 0 0
0 0 0
0 0 0
128 0 255
128 0 255
128 0 255
128 0 255
128 0 255
128 0 255
128 0 255
128 0 255
128 0 255
128 0 255
0 0 0
0 0 0
0 0 0
27 27 27
0 0 0
35 35 35
72 72 72
184 184 184
88 88 88
104 104 104
72 72 72
6 6 6
0 0 0
0 0 0
75 75 75
64 64 64
32 32 32
108 108 108
126 126 126
74 74 74
146 146 146
139 139 139
208 208 208
233 233 233
18 18 18
88 88 88
238 238 238
157 157 157
167 167 167
0 0 0
0 0 0
0 0 0
0 0 0
0 0 0
0 0 0
0 0 0
17 17 17
0 0 0
0 0 0
0 0 0
0 0 0
128 0 255
128 0 255
128 0 255
128 0 255
128 0 255
128 0 255
128 0 255
128 0 255
128 0 255
128 0 255
128 0 255
0 0 0
40 40 40
0 0 0
179 179 179
15 15 15
0 0 0
36 36 36
58 58 58
65 65 65
31 31 31
0 0 0
0 0 0
102 102 102
183 183 183
207 207 207
67 67 67
138 138 138
36 36 36
92 92 92
196 196 196
185 185 185
174 174 174
0 0 0
203 203 203
153 153 153
137 137 137
0 0 0
0 0 0
0 0 0
0 0 0
0 0 0
0 0 0
0 0 0
0 0 0
0 0 0
14 14 14
0 0 0
0 0 0
0 0 0
128 0 255
128 0 255
128 0 255
128 0 255
128 0 255
128 0 255
128 0 255
128 0 255
128 0 255
128 0 255
128 0 255
192 192 192
88 88 88
78 78 78
0 0 0
0 0 0
26 26 26
43 43 43
48 48 48
45 45 45
33 33 33
0 0 0
0 0 0
0 0 0
33 33 33
159 159 159
186 186 186
210 210 210
221 221 221
115 115 115
138 138 138
188 188 188
148 148 148
179 179 179
168 168 168
57 57 57
74 74 74
0 0 0
0 0 0
0 0 0
0 0 0
0 0 0
0 0 0
0 0 0
0 0 0
0 0 0
0 0 0
0 0 0
0 0 0
0 0 0
128 0 255
128 0 255
128 0 255
128 0 255
128 0 255
128 0 255
128 0 255
128 0 255
128 0 255
128 0 255
107 107 107
218 218 218
0 0 0
0 0 0
3 3 3
17 17 17
78 78 78
62 62 62
0 0 0
50 50 50
0 0 0
0 0 0
0 0 0
0 0 0
0 0 0
0 0 0
53 53 53
121 121 121
176 176 176
115 115 115
157 157 157
155 155 155
177 177 177
177 177 177
129 129 129
0 0 0
98 98 98
245 245 245
74 74 74
167 167 167
160 160 160
177 177 177
179 179 179
178 178 178
13 13 13
0 0 0
0 0 0
0 0 0
0 0 0
0 0 0
128 0 255
128 0 255
128 0 255
128 0 255
128 0 255
128 0 255
128 0 255
128 0 255
128 0 255
128 0 255
234 234 234
249 249 249
219 219 219
161 161 161
77 77 77
62 62 62
77 77 77
90 90 90
72 72 72
15 15 15
0 0 0
0 0 0
0 0 0
0 0 0
0 0 0
0 0 0
0 0 0
64 64 64
147 147 147
146 146 146
196 196 196
154 154 154
173 173 173
98 98 98
88 88 88
68 68 68
174 174 174
118 118 118
98 98 98
38 38 38
7 7 7
0 0 0
36 36 36
15 15 15
0 0 0
10 10 10
43 43 43
0 0 0
0 0 0
0 0 0
128 0 255
128 0 255
128 0 255
128 0 255
128 0 255
128 0 255
128 0 255
128 0 255
128 0 255
219 219 219
225 225 225
27 27 27
204 204 204
202 202 202
214 214 214
213 213 213
241 241 241
139 139 139
157 157 157
153 153 153
0 0 0
0 0 0
0 0 0
0 0 0
0 0 0
244 244 244
245 245 245
63 63 63
143 143 143
147 147 147
75 75 75
195 195 195
162 162 162
72 72 72
39 39 39
52 52 52
86 86 86
51 51 51
84 84 84
48 48 48
45 45 45
56 56 56
18 18 18
2 2 2
0 0 0
0 0 0
0 0 0
0 0 0
0 0 0
135 135 135
128 0 255
128 0 255
128 0 255
128 0 255
128 0 255
128 0 255
128 0 255
128 0 255
155 155 155
188 188 188
180 180 180
161 161 161
188 188 188
131 131 131
191 191 191
200 200 200
192 192 192
212 212 212
160 160 160
50 50 50
0 0 0
0 0 0
0 0 0
0 0 0
0 0 0
120 120 120
240 240 240
69 69 69
158 158 158
32 32 32
157 157 157
152 152 152
65 65 65
88 88 88
21 21 21
18 18 18
34 34 34
22 22 22
0 0 0
22 22 22
8 8 8
26 26 26
9 9 9
39 39 39
0 0 0
0 0 0
0 0 0
0 0 0
0 0 0
21 21 21
128 0 255
128 0 255
128 0 255
128 0 255
128 0 255
128 0 255
128 0 255
175 175 175
215 215 215
54 54 54
184 184 184
140 140 140
146 146 146
134 134 134
186 186 186
196 196 196
214 214 214
169 169 169
113 113 113
85 85 85
0 0 0
0 0 0
0 0 0
79 79 79
242 242 242
192 192 192
232 232 232
68 68 68
181 181 181
118 118 118
137 137 137
128 128 128
133 133 133
89 89 89
46 46 46
12 12 12
6 6 6
0 0 0
98 98 98
117 117 117
38 38 38
0 0 0
0 0 0
0 0 0
0 0 0
0 0 0
0 0 0
0 0 0
0 0 0
0 0 0
128 0 255
128 0 255
128 0 255
128 0 255
128 0 255
128 0 255
128 0 255
209 209 209
219 219 219
84 84 84
66 66 66
83 83 83
130 130 130
120 120 120
75 75 75
80 80 80
44 44 44
114 114 114
122 122 122
28 28 28
0 0 0
15 15 15
191 191 191
217 217 217
164 164 164
193 193 193
233 233 233
60 60 60
123 123 123
118 118 118
0 0 0
0 0 0
65 65 65
78 78 78
26 26 26
168 168 168
2 2 2
24 24 24
26 26 26
3 3 3
0 0 0
16 16 16
0 0 0
0 0 0
0 0 0
0 0 0
0 0 0
0 0 0
0 0 0
128 0 255
128 0 255
128 0 255
128 0 255
128 0 255
128 0 255
128 0 255
159 159 159
179 179 179
185 185 185
180 180 180
158 158 158
142 142 142
109 109 109
167 167 167
187 187 187
177 177 177
204 204 204
194 194 194
0 0 0
0 0 0
155 155 155
195 195 195
179 179 179
220 220 220
226 226 226
242 242 242
113 113 113
220 220 220
81 81 81
114 114 114
42 42 42
29 29 29
19 19 19
21 21 21
13 13 13
5 5 5
10 10 10
15 15 15
59 59 59
0 0 0
0 0 0
0 0 0
0 0 0
0 0 0
0 0 0
0 0 0
0 0 0
49 49 49
0 0 0
128 0 255
128 0 255
128 0 255
128 0 255
128 0 255
128 0 255
162 162 162
180 180 180
88 88 88
0 0 0
148 148 148
133 133 133
85 85 85
51 51 51
157 157 157
187 187 187
188 188 188
136 136 136
156 156 156
182 182 182
43 43 43
180 180 180
24 24 24
193 193 193
207 207 207
221 221 221
227 227 227
160 160 160
186 186 186
20 20 20
25 25 25
14 14 14
0 0 0
0 0 0
0 0 0
0 0 0
3 3 3
0 0 0
0 0 0
0 0 0
0 0 0
0 0 0
16 16 16
27 27 27
0 0 0
0 0 0
88 88 88
0 0 0
0 0 0
0 0 0
128 0 255
128 0 255
128 0 255
128 0 255
128 0 255
128 0 255
50 50 50
160 160 160
139 139 139
168 168 168
161 161 161
138 138 138
102 102 102
66 66 66
226 226 226
150 150 150
172 172 172
155 155 155
0 0 0
152 152 152
148 148 148
92 92 92
205 205 205
203 203 203
211 211 211
209 209 209
209 209 209
132 132 132
153 153 153
0 0 0
0 0 0
25 25 25
0 0 0
0 0 0
0 0 0
0 0 0
0 0 0
0 0 0
0 0 0
0 0 0
0 0 0
0 0 0
0 0 0
0 0 0
0 0 0
0 0 0
0 0 0
0 0 0
0 0 0
0 0 0
128 0 255
128 0 255
128 0 255
128 0 255
128 0 255
128 0 255
156 156 156
142 142 142
152 152 152
150 150 150
91 91 91
63 63 63
43 43 43
0 0 0
129 129 129
132 132 132
160 160 160
159 159 159
170 170 170
151 151 151
162 162 162
11 11 11
176 176 176
203 203 203
154 154 154
204 204 204
195 195 195
177 177 177
153 153 153
124 124 124
49 49 49
0 0 0
0 0 0
96 96 96
0 0 0
0 0 0
0 0 0
0 0 0
0 0 0
0 0 0
0 0 0
0 0 0
0 0 0
0 0 0
0 0 0
0 0 0
0 0 0
0 0 0
0 0 0
0 0 0
128 0 255
128 0 255
128 0 255
128 0 255
128 0 255
128 0 255
127 127 127
0 0 0
105 105 105
108 108 108
88 88 88
0 0 0
0 0 0
20 20 20
132 132 132
64 64 64
159 159 159
153 153 153
19 19 19
154 154 154
133 133 133
62 62 62
116 116 116
172 172 172
181 181 181
88 88 88
160 160 160
142 142 142
85 85 85
120 120 120
8 8 8
106 106 106
0 0 0
36 36 36
0 0 0
0 0 0
0 0 0
0 0 0
0 0 0
0 0 0
0 0 0
0 0 0
0 0 0
0 0 0
0 0 0
0 0 0
0 0 0
0 0 0
0 0 0
0 0 0
128 0 255
128 0 255
128 0 255
128 0 255
128 0 255
106 106 106
72 72 72
77 77 77
63 63 63
57 57 57
29 29 29
19 19 19
5 5 5
94 94 94
113 113 113
118 118 118
129 129 129
113 113 113
117 117 117
102 102 102
72 72 72
159 159 159
171 171 171
176 176 176
185 185 185
160 160 160
134 134 134
111 111 111
0 0 0
102 102 102
28 28 28
27 27 27
13 13 13
15 15 15
0 0 0
0 0 0
0 0 0
0 0 0
0 0 0
0 0 0
0 0 0
0 0 0
0 0 0
0 0 0
0 0 0
0 0 0
0 0 0
0 0 0
0 0 0
128 0 255
128 0 255
128 0 255
128 0 255
128 0 255
128 0 255
97 97 97
73 73 73
28 28 28
44 44 44
0 0 0
0 0 0
0 0 0
0 0 0
79 79 79
114 114 114
105 105 105
112 112 112
0 0 0
118 118 118
89 89 89
89 89 89
179 179 179
215 215 215
0 0 0
135 135 135
129 129 129
88 88 88
63 63 63
88 88 88
70 70 70
28 28 28
70 70 70
21 21 21
12 12 12
0 0 0
0 0 0
0 0 0
82 82 82
71 71 71
24 24 24
0 0 0
0 0 0
0 0 0
0 0 0
0 0 0
0 0 0
0 0 0
0 0 0
128 0 255
128 0 255
128 0 255
128 0 255
128 0 255
128 0 255
128 0 255
127 127 127
32 32 32
19 19 19
29 29 29
17 17 17
0 0 0
0 0 0
0 0 0
62 62 62
68 68 68
93 93 93
0 0 0
211 211 211
90 90 90
91 91 91
116 116 116
29 29 29
206 206 206
168 168 168
136 136 136
89 89 89
8 8 8
81 81 81
32 32 32
22 22 22
24 24 24
5 5 5
0 0 0
66 66 66
12 12 12
0 0 0
0 0 0
0 0 0
0 0 0
0 0 0
0 0 0
0 0 0
0 0 0
0 0 0
0 0 0
128 0 255
128 0 255
128 0 255
128 0 255
128 0 255
128 0 255
128 0 255
128 0 255
128 0 255
160 160 160
19 19 19
24 24 24
0 0 0
0 0 0
15 15 15
0 0 0
0 0 0
0 0 0
60 60 60
75 75 75
74 74 74
77 77 77
78 78 78
78 78 78
70 70 70
146 146 146
189 189 189
87 87 87
146 146 146
138 138 138
27 27 27
68 68 68
25 25 25
41 41 41
3 3 3
0 0 0
169 169 169
87 87 87
0 0 0
0 0 0
0 0 0
8 8 8
0 0 0
0 0 0
0 0 0
0 0 0
0 0 0
1 1 1
0 0 0
11 11 11
128 0 255
128 0 255
128 0 255
128 0 255
128 0 255
128 0 255
128 0 255
128 0 255
128 0 255
193 193 193
125 125 125
193 193 193
93 93 93
0 0 0
0 0 0
0 0 0
0 0 0
69 69 69
0 0 0
36 36 36
69 69 69
77 77 77
66 66 66
86 86 86
136 136 136
0 0 0
177 177 177
200 200 200
177 177 177
85 85 85
216 216 216
0 0 0
4 4 4
11 11 11
0 0 0
12 12 12
1 1 1
1 1 1
0 0 0
1 1 1
0 0 0
0 0 0
0 0 0
0 0 0
0 0 0
0 0 0
0 0 0
0 0 0
0 0 0
112 112 112
0 0 0
128 0 255
128 0 255
128 0 255
128 0 255
128 0 255
128 0 255
128 0 255
128 0 255
227 227 227
223 223 223
0 0 0
0 0 0
59 59 59
214 214 214
0 0 0
0 0 0
71 71 71
7 7 7
26 26 26
95 95 95
51 51 51
43 43 43
64 64 64
61 61 61
125 125 125
81 81 81
168 168 168
188 188 188
0 0 0
69 69 69
0 0 0
0 0 0
3 3 3
0 0 0
0 0 0
19 19 19
63 63 63
0 0 0
0 0 0
0 0 0
0 0 0
76 76 76
0 0 0
0 0 0
0 0 0
0 0 0
0 0 0
16 16 16
85 85 85
0 0 0
128 0 255
128 0 255
128 0 255
128 0 255
128 0 255
128 0 255
235 235 235
145 145 145
19 19 19
118 118 118
87 87 87
0 0 0
153 153 153
78 78 78
11 11 11
0 0 0
4 4 4
15 15 15
2 2 2
25 25 25
35 35 35
240 240 240
237 237 237
26 26 26
128 128 128
126 126 126
189 189 189
34 34 34
214 214 214
87 87 87
0 0 0
142 142 142
0 0 0
0 0 0
0 0 0
14 14 14
0 0 0
0 0 0
0 0 0
0 0 0
0 0 0
0 0 0
0 0 0
0 0 0
39 39 39
0 0 0
132 132 132
168 168 168
147 147 147
128 128 128
154 154 154
117 117 117
128 0 255
128 0 255
128 0 255
128 0 255
221 221 221
17 17 17
217 217 217
133 133 133
0 0 0
0 0 0
107 107 107
239 239 239
3 3 3
0 0 0
0 0 0
4 4 4
0 0 0
0 0 0
10 10 10
17 17 17
37 37 37
69 69 69
129 129 129
143 143 143
218 218 218
247 247 247
201 201 201
0 0 0
19 19 19
0 0 0
0 0 0
90 90 90
0 0 0
43 43 43
0 0 0
0 0 0
0 0 0
0 0 0
0 0 0
57 57 57
0 0 0
0 0 0
0 0 0
105 105 105
122 122 122
154 154 154
230 230 230
188 188 188
227 227 227
31 31 31
203 203 203
18 18 18
0 0 0
128 0 255
0 0 0
73 73 73
159 159 159
116 116 116
118 118 118
42 42 42
128 128 128
94 94 94
0 0 0
0 0 0
0 0 0
0 0 0
0 0 0
23 23 23
50 50 50
12 12 12
22 22 22
7 7 7
165 165 165
182 182 182
173 173 173
153 153 153
247 247 247
164 164 164
24 24 24
0 0 0
0 0 0
0 0 0
0 0 0
20 20 20
17 17 17
124 124 124
0 0 0
0 0 0
0 0 0
0 0 0
0 0 0
0 0 0
83 83 83
53 53 53
135 135 135
175 175 175
140 140 140
148 148 148
31 31 31
99 99 99
0 0 0
138 138 138
86 86 86
128 0 255
67 67 67
0 0 0
52 52 52
60 60 60
0 0 0
0 0 0
82 82 82
26 26 26
0 0 0
0 0 0
0 0 0
7 7 7
109 109 109
9 9 9
0 0 0
24 24 24
57 57 57
0 0 0
199 199 199
168 168 168
16 16 16
192 192 192
105 105 105
111 111 111
0 0 0
248 248 248
215 215 215
77 77 77
0 0 0
4 4 4
35 35 35
0 0 0
0 0 0
0 0 0
0 0 0
0 0 0
0 0 0
0 0 0
95 95 95
95 95 95
113 113 113
115 115 115
113 113 113
42 42 42
132 132 132
153 153 153
0 0 0
121 121 121
91 91 91
128 0 255
0 0 0
0 0 0
187 187 187
196 196 196
132 132 132
39 39 39
108 108 108
192 192 192
0 0 0
128 0 255
128 0 255
128 0 255
128 0 255
128 0 255
0 0 0
0 0 0
0 0 0
10 10 10
130 130 130
168 168 168
0 0 0
130 130 130
153 153 153
124 124 124
0 0 0
146 146 146
157 157 157
0 0 0
0 0 0
107 107 107
109 109 109
18 18 18
0 0 0
0 0 0
0 0 0
0 0 0
0 0 0
0 0 0
74 74 74
74 74 74
79 79 79
88 88 88
80 80 80
89 89 89
126 126 126
128 128 128
39 39 39
112 112 112
76 76 76
128 0 255
128 0 255
128 0 255
128 0 255
128 0 255
128 0 255
128 0 255
128 0 255
128 0 255
128 0 255
128 0 255
128 0 255
128 0 255
128 0 255
128 0 255
128 0 255
128 0 255
128 0 255
159 159 159
86 86 86
141 141 141
0 0 0
122 122 122
80 80 80
90 90 90
1 1 1
130 130 130
204 204 204
51 51 51
0 0 0
0 0 0
0 0 0
3 3 3
0 0 0
0 0 0
0 0 0
0 0 0
0 0 0
0 0 0
16 16 16
30 30 30
38 38 38
48 48 48
48 48 48
55 55 55
22 22 22
20 20 20
0 0 0
18 18 18
23 23 23
128 0 255
128 0 255
128 0 255
128 0 255
128 0 255
128 0 255
128 0 255
128 0 255
128 0 255
128 0 255
128 0 255
128 0 255
128 0 255
128 0 255
128 0 255
128 0 255
128 0 255
128 0 255
115 115 115
204 204 204
29 29 29
0 0 0
130 130 130
190 190 190
145 145 145
45 45 45
0 0 0
137 137 137
15 15 15
0 0 0
0 0 0
0 0 0
0 0 0
14 14 14
0 0 0
128 0 255
128 0 255
128 0 255
128 0 255
128 0 255
128 0 255
128 0 255
128 0 255
128 0 255
50 50 50
11 11 11
0 0 0
0 0 0
128 0 255
0 0 0
128 0 255
128 0 255
128 0 255
128 0 255
128 0 255
128 0 255
128 0 255
128 0 255
128 0 255
128 0 255
128 0 255
128 0 255
128 0 255
128 0 255
128 0 255
128 0 255
128 0 255
128 0 255
150 150 150
131 131 131
0 0 0
0 0 0
92 92 92
148 148 148
93 93 93
0 0 0
0 0 0
145 145 145
30 30 30
0 0 0
128 0 255
128 0 255
128 0 255
128 0 255
128 0 255
128 0 255
128 0 255
128 0 255
128 0 255
128 0 255
128 0 255
128 0 255
128 0 255
128 0 255
128 0 255
128 0 255
128 0 255
128 0 255
128 0 255
128 0 255
128 0 255
128 0 255
128 0 255
128 0 255
128 0 255
128 0 255
128 0 255
128 0 255
128 0 255
128 0 255
128 0 255
128 0 255
128 0 255
128 0 255
128 0 255
128 0 255
128 0 255
128 0 255
73 73 73
70 70 70
15 15 15
0 0 0
37 37 37
51 51 51
80 80 80
0 0 0
0 0 0
7 7 7
0 0 0
0 0 0
128 0 255
128 0 255
128 0 255
128 0 255
128 0 255
128 0 255
128 0 255
128 0 255
128 0 255
128 0 255
128 0 255
128 0 255
128 0 255
128 0 255
128 0 255
128 0 255
128 0 255
128 0 255
128 0 255
128 0 255
128 0 255
128 0 255
128 0 255
128 0 255
128 0 255
128 0 255
128 0 255
128 0 255
128 0 255
128 0 255
128 0 255
128 0 255
128 0 255
128 0 255
128 0 255
128 0 255
128 0 255
128 0 255
128 0 255
0 0 0
7 7 7
0 0 0
31 31 31
42 42 42
5 5 5
0 0 0
0 0 0
1 1 1
0 0 0
128 0 255
128 0 255
128 0 255
128 0 255
128 0 255
128 0 255
128 0 255
128 0 255
128 0 255
128 0 255
128 0 255
128 0 255
128 0 255
128 0 255
128 0 255
128 0 255
128 0 255
128 0 255
128 0 255
128 0 255
128 0 255
128 0 255
128 0 255
128 0 255
128 0 255
128 0 255
128 0 255
128 0 255
128 0 255
128 0 255
128 0 255
128 0 255
128 0 255
128 0 255
128 0 255
128 0 255
128 0 255
128 0 255
128 0 255
128 0 255
128 0 255
128 0 255
128 0 255
128 0 255
128 0 255
0 0 0
128 0 255
128 0 255
128 0 255
128 0 255
128 0 255
128 0 255
128 0 255
128 0 255
128 0 255
128 0 255
128 0 255
128 0 255
128 0 255
128 0 255
128 0 255
128 0 255
128 0 255
128 0 255
128 0 255
128 0 255
128 0 255
128 0 255
128 0 255
128 0 255
128 0 255
128 0 255
128 0 255
128 0 255
128 0 255
128 0 255
128 0 255
128 0 255
128 0 255
128 0 255
128 0 255
128 0 255
128 0 255
128 0 255
128 0 255
128 0 255
128 0 255
128 0 255
128 0 255
128 0 255
128 0 255
128 0 255
128 0 255
128 0 255
128 0 255
128 0 255
128 0 255
128 0 255
128 0 255
128 0 255
128 0 255
128 0 255
128 0 255
128 0 255
128 0 255
128 0 255
128 0 255
128 0 255
128 0 255
128 0 255
128 0 255
128 0 255
128 0 255
128 0 255
128 0 255
128 0 255
128 0 255
128 0 255
128 0 255
128 0 255
128 0 255
128 0 255
128 0 255
128 0 255
128 0 255
128 0 255
128 0 255
128 0 255
128 0 255
128 0 255
128 0 255
128 0 255
128 0 255
128 0 255
128 0 255
128 0 255
128 0 255
128 0 255
128 0 255
128 0 255
128 0 255
128 0 255
128 0 255
128 0 255
128 0 255
128 0 255
128 0 255
128 0 255
128 0 255
128 0 255
128 0 255
128 0 255
128 0 255
128 0 255
128 0 255
128 0 255
128 0 255
128 0 255
128 0 255
128 0 255
128 0 255
128 0 255
128 0 255
128 0 255
128 0 255
128 0 255
128 0 255
128 0 255
128 0 255
128 0 255
128 0 255
